# AST/ASF file generated using VICON BodyLanguage
# -----------------------------------------------
:version 1.10
:name VICON
:units
  mass 1.0
  length 0.45
  angle deg
:documentation
   .ast/.asf automatically generated from VICON data using
   VICON BodyBuilder and BodyLanguage model FoxedUp or BRILLIANT.MOD
:root
   order TX TY TZ RX RY RZ
   axis XYZ
   position 0 0 0  
   orientation 0 0 0 
:bonedata
  begin
     id 1 
     name lhipjoint
     direction 0.690799 -0.707083 0.151096 
     length 2.54797 
     axis 0 0 0  XYZ
  end
  begin
     id 2 
     name lfemur
     direction 0.34202 -0.939693 0  
     length 7.21646  
     axis 0 0 20  XYZ
    dof rx ry rz
    limits (-160.0 20.0)
           (-70.0 70.0)
           (-60.0 70.0)
  end
  begin
     id 3 
     name ltibia
     direction 0.34202 -0.939693 0   
     length 8.16759   
     axis 0 0 20   XYZ
    dof rx
    limits (-10.0 170.0)
  end
  begin
     id 4 
     name lfoot
     direction 0.0487203 -0.133858 0.989802   
     length 1.93375   
     axis -90 7.62852e-016 20   XYZ
    dof rx rz
    limits (-45.0 90.0)
           (-70.0 20.0)
  end
  begin
     id 5 
     name ltoes
     direction 1.53453e-011 -4.21783e-011 1   
     length 0.979747   
     axis -90 7.62852e-016 20   XYZ
    dof rx
    limits (-90.0 20.0)
  end
  begin
     id 6 
     name rhipjoint
     direction -0.694693 -0.703425 0.150315   
     length 2.56122  
     axis 0 0 0  XYZ 
  end
  begin
     id 7 
     name rfemur
     direction -0.34202 -0.939693 0   
     length 7.36786   
     axis 0 0 -20   XYZ
    dof rx ry rz
    limits (-160.0 20.0)
           (-70.0 70.0)
           (-70.0 60.0)
  end
  begin
     id 8 
     name rtibia
     direction -0.34202 -0.939693 0   
     length 8.07288   
     axis 0 0 -20   XYZ
    dof rx
    limits (-10.0 170.0)
 end
 begin
     id 9 
     name rfoot
     direction -0.0428397 -0.117701 0.992125   
     length 1.88295  
     axis -90 -7.62852e-016 -20   XYZ
    dof rx rz
    limits (-45.0 90.0)
           (-20.0 70.0)
  end
  begin
     id 10 
     name rtoes
     direction -1.53456e-011 -4.2187e-011 1   
     length 0.955578   
     axis -90 -7.62852e-016 -20   XYZ
    dof rx
    limits (-90.0 20.0)
  end
  begin
     id 11 
     name lowerback
     direction 0.0288145 0.999398 -0.0193241   
     length 1.92149   
     axis 0 0 0   XYZ
    dof rx ry rz
    limits (-20.0 45.0)
           (-30.0 30.0)
           (-30.0 30.0)
  end
  begin
     id 12 
     name upperback
     direction 0.0233784 0.998099 0.0570278   
     length 1.90435   
     axis 0 0 0   XYZ
    dof rx ry rz
    limits (-20.0 45.0)
           (-30.0 30.0)
           (-30.0 30.0)
  end
  begin
     id 13 
     name thorax
     direction 0.0096694 0.997833 0.0650817   
     length 1.9111   
     axis 0 0 0   XYZ
    dof rx ry rz
    limits (-20.0 45.0)
           (-30.0 30.0)
           (-30.0 30.0)
  end
  begin
     id 14 
     name lowerneck
     direction 0.00516803 0.999916 0.0118722   
     length 1.74664   
     axis 0 0 0   XYZ
    dof rx ry rz
    limits (-20.0 45.0)
           (-30.0 30.0)
           (-30.0 30.0)
  end
  begin
     id 15 
     name upperneck
     direction -0.0510851 0.996117 -0.071696   
     length 1.68498   
     axis 0 0 0   XYZ
    dof rx ry rz
    limits (-20.0 45.0)
           (-30.0 30.0)
           (-30.0 30.0)
  end
  begin
     id 16
     name head
     direction -0.019188 0.999436 -0.0275702  
     length 1.83483  
     axis 0 0 0   XYZ
    dof rx ry rz
    limits (-20.0 45.0)
           (-30.0 30.0)
           (-30.0 30.0)
  end
  begin
     id 17 
     name lclavicle
     direction 0.967006 0.248456 -0.0562957  
     length 3.39395  
     axis 0 0 0   XYZ
    dof ry rz
    limits (-20.0 10.0)
           (0.0 20.0)
  end
  begin
     id 18 
     name lhumerus
     direction 1 -4.48962e-011 -5.62711e-019   
     length 5.24318   
     axis 180 -30 -90   XYZ
    dof rx ry rz
    limits (-60.0 90.0)
           (-90.0 90.0)
           (-90.0 90.0)
  end
  begin
     id 19
     name lradius
     direction 1 -4.48966e-011 7.90625e-027   
     length 2.98999   
     axis 180 -30 -90   XYZ
    dof rx
    limits (-10.0 170.0)
  end
  begin
     id 20
     name lwrist
     direction 1 -4.48959e-011 1.61068e-026   
     length 1.49499   
     axis -9.31229e-015 90 90   XYZ
    dof ry
    limits (-180.0 0.0)
 end
  begin
     id 21 
     name lhand
     direction 1 -4.49017e-011 3.22136e-026   
     length 0.726745   
     axis -2.0555e-014 90 90   XYZ
    dof rx rz
    limits (-90.0 90.0)
           (-45.0 45.0)
  end
  begin
     id 22 
     name lfingers
     direction 1 -4.4898e-011 6.44272e-026   
     length 0.58592   
     axis -4.11101e-014 90 90   XYZ
    dof rx
    limits (0.0 90.0)
  end
  begin
     id 23
     name lthumb
     direction 0.707107 -6.34922e-011 0.707107   
     length 0.841268   
     axis -90 45 2.85299e-015   XYZ
    dof rx rz
    limits (-45.0 45.0)
           (-45.0 45.0)
  end
  begin
     id 24 
     name rclavicle
     direction -0.972232 0.230238 0.0419005   
     length 3.40416  
     axis 0 0 0   XYZ 
    dof ry rz
    limits (-10.0 20.0)
           (-20.0 0.0)
  end
  begin
     id 25 
     name rhumerus
     direction -1 -4.48976e-011 2.48487e-027  
     length 5.37045   
     axis 180 30 90   XYZ
    dof rx ry rz
    limits (-90.0 60.0)
           (-90.0 90.0)
           (-90.0 90.0)
  end
  begin
     id 26 
     name rradius
     direction -1 -4.48942e-011 7.87951e-027   
     length 2.92792   
     axis 180 30 90   XYZ
    dof rx
    limits (-10.0 170.0)
  end
  begin
     id 27 
     name rwrist
     direction -1 -4.48969e-011 1.61068e-026   
     length 1.46396   
     axis -9.31229e-015 -90 -90   XYZ
    dof ry
    limits (-180.0 0.0)
  end
  begin
     id 28
     name rhand
     direction -1 -4.49043e-011 3.22136e-026   
     length 0.784497   
     axis -2.0555e-014 -90 -90   XYZ
    dof rx rz
    limits (-90.0 90.0)
           (-45.0 45.0)
  end
  begin
     id 29
     name rfingers
     direction -1 -4.48823e-011 6.44272e-026   
     length 0.632482   
     axis -4.11101e-014 -90 -90   XYZ
    dof rx
    limits (0.0 90.0)
  end
  begin
     id 30
     name rthumb
     direction -0.707107 -6.34923e-011 0.707107   
     length 0.908121   
     axis -90 -45 -2.85299e-015   XYZ
    dof rx rz
    limits (-45.0 45.0)
           (-45.0 45.0)
  end
:hierarchy
  begin
    root lhipjoint rhipjoint lowerback
    lhipjoint lfemur
    lfemur ltibia
    ltibia lfoot
    lfoot ltoes
    rhipjoint rfemur
    rfemur rtibia
    rtibia rfoot
    rfoot rtoes
    lowerback upperback
    upperback thorax
    thorax lowerneck lclavicle rclavicle
    lowerneck upperneck
    upperneck head
    lclavicle lhumerus
    lhumerus lradius
    lradius lwrist
    lwrist lhand lthumb
    lhand lfingers
    rclavicle rhumerus
    rhumerus rradius
    rradius rwrist
    rwrist rhand rthumb
    rhand rfingers
  end

#!OML:ASF E:\Style6\Style6.ASF
:FULLY-SPECIFIED
:DEGREES
1211
root 0.704333 18.2048 0.208251 7.21696 -4.54446 -1.84986
lowerback -1.7063 -1.24664 1.88485
upperback -1.13015 -1.68958 2.26326
thorax -0.187747 -0.848499 1.23656
lowerneck -5.84763 -3.80879 0.133282
upperneck 18.2387 -4.22187 -5.96696
head 6.35483 -2.51312 -2.22336
rclavicle 2.16675e-014 -5.24792e-014
rhumerus -5.52826 18.7519 -102.351
rradius 139.166
rwrist 50.8697
rhand 31.1697 -6.66706
rfingers 7.12502
rthumb 54.7554 -24.9812
lclavicle 2.16675e-014 -5.24792e-014
lhumerus -10.2895 -14.6672 97.063
lradius 131.114
lwrist -30.641
lhand 7.60635 36.8226
lfingers 7.12502
lthumb 32.8527 63.8538
rfemur -13.8339 8.76252 18.4592
rtibia 14.9019
rfoot -4.64894 -14.1899
rtoes -2.94971
lfemur -13.0254 -14.2131 -17.125
ltibia 21.1699
lfoot -7.0675 21.1182
ltoes -13.0511
1212
root 0.703581 18.21 0.210483 7.22547 -4.54772 -1.92945
lowerback -2.63074 -1.25643 1.91184
upperback -0.577046 -1.75218 2.27734
thorax 0.89683 -0.873891 1.20374
lowerneck -6.06303 -4.07246 -0.0154341
upperneck 18.0025 -4.58777 -5.85251
head 6.31299 -2.68937 -2.18681
rclavicle -1.37161e-014 -1.82882e-014
rhumerus -4.71399 18.8862 -102.115
rradius 139.102
rwrist 50.6475
rhand 31.3114 -6.64834
rfingers 7.12502
rthumb 54.8819 -24.8721
lclavicle -1.37161e-014 -1.82882e-014
lhumerus -9.47361 -14.7418 96.8367
lradius 131.034
lwrist -30.6061
lhand 7.60559 36.6886
lfingers 7.12502
lthumb 32.8519 63.72
rfemur -13.6663 8.87446 18.5539
rtibia 14.6135
rfoot -4.46893 -14.3649
rtoes -3.76443
lfemur -12.8885 -14.575 -17.0299
ltibia 20.9508
lfoot -6.98715 21.4631
ltoes -12.8363
1213
root 0.701684 18.2138 0.212619 7.23599 -4.5529 -1.98991
lowerback -1.81676 -1.29044 2.03785
upperback -1.1926 -1.75209 2.22289
thorax -0.195322 -0.880822 1.10697
lowerneck -5.76697 -4.30513 -0.211214
upperneck 18.6158 -4.88277 -5.78291
head 6.45508 -2.84562 -2.16036
rclavicle -3.21534e-014 -1.59028e-015
rhumerus -5.80404 18.8098 -102.611
rradius 139.252
rwrist 50.5111
rhand 31.2705 -6.68841
rfingers 7.12502
rthumb 54.8454 -24.9383
lclavicle -3.21534e-014 -1.59028e-015
lhumerus -10.569 -14.6236 97.014
lradius 131.15
lwrist -30.6833
lhand 7.75206 36.4186
lfingers 7.12502
lthumb 32.9913 63.4206
rfemur -13.5087 9.12448 18.6097
rtibia 14.3353
rfoot -4.45049 -14.6498
rtoes -3.45152
lfemur -12.7774 -14.9852 -16.9354
ltibia 20.7441
lfoot -7.00743 21.8307
ltoes -12.0754
1214
root 0.699337 18.2168 0.215522 7.19893 -4.54382 -2.07906
lowerback -3.00918 -1.28787 1.97579
upperback -0.434965 -1.81414 2.29764
thorax 1.25364 -0.90256 1.17539
lowerneck -6.01135 -4.59282 -0.538371
upperneck 18.1584 -5.28671 -5.53048
head 6.35886 -3.03785 -2.04932
rclavicle 8.94531e-016 2.90226e-014
rhumerus -4.66156 19.0545 -102.192
rradius 139.193
rwrist 50.3291
rhand 31.2893 -6.7557
rfingers 7.12502
rthumb 54.8622 -24.9936
lclavicle 8.94531e-016 2.90226e-014
lhumerus -9.47159 -14.6785 96.8177
lradius 131.066
lwrist -30.659
lhand 7.92112 36.2098
lfingers 7.12502
lthumb 33.152 63.1778
rfemur -13.2615 9.47065 18.6902
rtibia 14.0095
rfoot -4.63433 -15.0018
rtoes -1.60585
lfemur -12.6292 -15.3606 -16.828
ltibia 20.5887
lfoot -7.07944 22.1824
ltoes -11.7445
1215
root 0.697761 18.2206 0.218958 7.15972 -4.55081 -2.07345
lowerback -1.93075 -1.33074 2.00815
upperback -1.17977 -1.81002 2.26757
thorax -0.115734 -0.909142 1.16526
lowerneck -5.73757 -4.75923 -0.73185
upperneck 18.9052 -5.47912 -5.52817
head 6.55079 -3.15229 -2.04227
rclavicle -6.75868e-015 -9.54166e-015
rhumerus -5.93407 18.983 -102.698
rradius 139.303
rwrist 50.4263
rhand 31.2348 -6.75934
rfingers 7.12502
rthumb 54.8135 -25.032
lclavicle -6.75868e-015 -9.54166e-015
lhumerus -10.7674 -14.518 97.1233
lradius 131.271
lwrist -30.6769
lhand 8.01625 36.1484
lfingers 7.12502
lthumb 33.2425 63.0972
rfemur -13.0209 9.68008 18.6814
rtibia 13.6747
rfoot -4.67572 -15.209
rtoes -1.03967
lfemur -12.4559 -15.6038 -16.8547
ltibia 20.4399
lfoot -6.98114 22.4468
ltoes -12.253
1216
root 0.696564 18.225 0.221992 7.11762 -4.53939 -2.07555
lowerback -3.07888 -1.33936 1.84184
upperback -0.443183 -1.88147 2.34932
thorax 1.29075 -0.936844 1.29898
lowerneck -6.04565 -4.96941 -0.886611
upperneck 18.4922 -5.77148 -5.40533
head 6.47504 -3.29006 -1.99665
rclavicle 2.03754e-014 2.66371e-014
rhumerus -4.82397 19.1877 -102.238
rradius 139.226
rwrist 50.2796
rhand 31.2751 -6.72812
rfingers 7.12502
rthumb 54.8495 -24.9751
lclavicle 2.03754e-014 2.66371e-014
lhumerus -9.69238 -14.5394 96.9742
lradius 131.211
lwrist -30.5803
lhand 8.15544 36.1749
lfingers 7.12502
lthumb 33.3748 63.0952
rfemur -12.768 9.85328 18.6854
rtibia 13.3292
rfoot -4.70711 -15.4048
rtoes -0.326355
lfemur -12.3022 -15.8404 -16.866
ltibia 20.3214
lfoot -6.95674 22.6367
ltoes -11.9786
1217
root 0.694823 18.2287 0.224595 7.08747 -4.53393 -2.11206
lowerback -2.1826 -1.37516 1.96134
upperback -1.05771 -1.88125 2.28358
thorax 0.152818 -0.943018 1.1977
lowerneck -5.92688 -5.11703 -0.916559
upperneck 19.2173 -5.94779 -5.45823
head 6.68139 -3.39094 -2.0376
rclavicle -3.25758e-014 2.8625e-014
rhumerus -5.88399 19.1038 -102.761
rradius 139.331
rwrist 50.2867
rhand 31.2712 -6.76886
rfingers 7.12502
rthumb 54.8461 -25.0183
lclavicle -3.25758e-014 2.8625e-014
lhumerus -10.753 -14.4064 97.0933
lradius 131.339
lwrist -30.5563
lhand 8.19728 36.1805
lfingers 7.12502
lthumb 33.4146 63.0923
rfemur -12.546 10.0752 18.7216
rtibia 13.0153
rfoot -4.68571 -15.6603
rtoes -0.0770231
lfemur -12.1805 -16.0538 -16.8326
ltibia 20.201
lfoot -7.01447 22.8567
ltoes -11.2886
1218
root 0.693316 18.2321 0.22607 7.04366 -4.52944 -2.18139
lowerback -3.3228 -1.37339 1.86128
upperback -0.317374 -1.94047 2.37763
thorax 1.55745 -0.964853 1.30658
lowerneck -6.12256 -5.3028 -1.05487
upperneck 18.6742 -6.21636 -5.31963
head 6.54541 -3.51206 -1.98102
rclavicle 9.69075e-015 7.95139e-015
rhumerus -4.74321 19.3126 -102.315
rradius 139.264
rwrist 50.1202
rhand 31.508 -6.93797
rfingers 7.12502
rthumb 55.0574 -25.0351
lclavicle 9.69075e-015 7.95139e-015
lhumerus -9.59618 -14.4949 96.9002
lradius 131.23
lwrist -30.5229
lhand 8.25472 36.3009
lfingers 7.12502
lthumb 33.4692 63.2009
rfemur -12.2948 10.3212 18.7983
rtibia 12.6668
rfoot -4.50586 -15.9402
rtoes -0.523467
lfemur -12.0521 -16.2393 -16.769
ltibia 20.1045
lfoot -7.18514 23.0397
ltoes -10.9263
1219
root 0.69239 18.2358 0.228311 6.98374 -4.54055 -2.18479
lowerback -2.45155 -1.40472 1.96971
upperback -0.899948 -1.93533 2.29289
thorax 0.465454 -0.968225 1.19132
lowerneck -5.79597 -5.38095 -1.04684
upperneck 19.1457 -6.32254 -5.33174
head 6.63589 -3.56836 -1.99611
rclavicle 3.13583e-014 1.23246e-014
rhumerus -5.74005 19.2359 -102.832
rradius 139.335
rwrist 50.2006
rhand 31.5152 -7.01245
rfingers 7.12502
rthumb 55.0638 -25.1049
lclavicle 3.13583e-014 1.23246e-014
lhumerus -10.5796 -14.414 97.0341
lradius 131.369
lwrist -30.573
lhand 8.24253 36.2542
lfingers 7.12502
lthumb 33.4576 63.1567
rfemur -12.0348 10.556 18.8026
rtibia 12.3342
rfoot -4.36143 -16.1952
rtoes -0.99194
lfemur -11.9051 -16.452 -16.7829
ltibia 19.9982
lfoot -7.30854 23.2457
ltoes -10.637
1220
root 0.691507 18.2397 0.230449 6.93234 -4.51694 -2.20851
lowerback -3.53697 -1.39587 1.83779
upperback -0.214297 -1.97993 2.35951
thorax 1.78387 -0.983394 1.29218
lowerneck -5.92014 -5.5267 -1.13887
upperneck 18.6084 -6.55003 -5.15186
head 6.49075 -3.66298 -1.92874
rclavicle -1.58034e-014 9.93923e-015
rhumerus -4.74846 19.4145 -102.443
rradius 139.27
rwrist 50.1443
rhand 31.4866 -6.99074
rfingers 7.12502
rthumb 55.0383 -25.1017
lclavicle -1.58034e-014 9.93923e-015
lhumerus -9.54918 -14.5259 96.8656
lradius 131.267
lwrist -30.601
lhand 8.14357 36.2821
lfingers 7.12502
lthumb 33.3635 63.2049
rfemur -11.7962 10.7939 18.8278
rtibia 12.0359
rfoot -4.3156 -16.4884
rtoes -0.6593
lfemur -11.7547 -16.6267 -16.7735
ltibia 19.8681
lfoot -7.15545 23.3917
ltoes -10.8621
1221
root 0.691111 18.2432 0.232575 6.89592 -4.47926 -2.23942
lowerback -3.56336 -1.41605 1.84512
upperback -0.241164 -2.00718 2.35839
thorax 1.77104 -0.997024 1.28527
lowerneck -5.89228 -5.65821 -1.22191
upperneck 18.7394 -6.73492 -5.058
head 6.53073 -3.75171 -1.90149
rclavicle 3.16068e-014 -7.55382e-015
rhumerus -4.94505 19.4145 -102.556
rradius 139.314
rwrist 50.2077
rhand 31.4361 -6.90581
rfingers 7.12502
rthumb 54.9932 -25.0494
lclavicle 3.16068e-014 -7.55382e-015
lhumerus -9.67684 -14.5335 96.8895
lradius 131.27
lwrist -30.6092
lhand 8.05838 36.4026
lfingers 7.12502
lthumb 33.2825 63.3428
rfemur -11.5828 10.9415 18.8631
rtibia 11.759
rfoot -4.335 -16.6791
rtoes -0.127988
lfemur -11.5929 -16.9262 -16.754
ltibia 19.7158
lfoot -7.03526 23.6459
ltoes -11.094
1222
root 0.690571 18.2456 0.234339 6.85191 -4.47559 -2.27731
lowerback -3.61684 -1.43592 1.8485
upperback -0.23784 -2.03612 2.37481
thorax 1.8052 -1.01135 1.29731
lowerneck -5.91412 -5.77485 -1.34006
upperneck 18.8772 -6.89435 -4.96017
head 6.58422 -3.83051 -1.86778
rclavicle 1.47598e-014 -5.96354e-015
rhumerus -5.05412 19.449 -102.608
rradius 139.348
rwrist 50.2204
rhand 31.3812 -6.9153
rfingers 7.12502
rthumb 54.9443 -25.0942
lclavicle 1.47598e-014 -5.96354e-015
lhumerus -9.76369 -14.4606 96.9267
lradius 131.271
lwrist -30.5693
lhand 8.09865 36.445
lfingers 7.12502
lthumb 33.3208 63.377
rfemur -11.3777 11.141 18.9069
rtibia 11.4904
rfoot -4.22462 -16.9187
rtoes -0.317605
lfemur -11.4587 -17.2512 -16.7176
ltibia 19.5789
lfoot -7.19338 23.9548
ltoes -10.204
1223
root 0.690795 18.2478 0.236943 6.80543 -4.47502 -2.2879
lowerback -3.66013 -1.44926 1.84916
upperback -0.251368 -2.05506 2.3766
thorax 1.81579 -1.02077 1.29685
lowerneck -5.89501 -5.85534 -1.42019
upperneck 18.9874 -7.00909 -4.8731
head 6.62083 -3.88547 -1.8382
rclavicle -8.49804e-015 1.23246e-014
rhumerus -5.16584 19.451 -102.667
rradius 139.375
rwrist 50.2846
rhand 31.3404 -6.77065
rfingers 7.12502
rthumb 54.9078 -24.9758
lclavicle -8.49804e-015 1.23246e-014
lhumerus -9.88022 -14.3872 96.9862
lradius 131.293
lwrist -30.5071
lhand 8.18456 36.4961
lfingers 7.12502
lthumb 33.4025 63.4105
rfemur -11.1579 11.3089 18.9176
rtibia 11.2067
rfoot -4.13543 -17.0893
rtoes -0.592614
lfemur -11.3256 -17.5153 -16.7252
ltibia 19.463
lfoot -7.28818 24.2378
ltoes -9.45303
1224
root 0.689141 18.2499 0.238201 6.78963 -4.48688 -2.28201
lowerback -3.53008 -1.46445 1.8095
upperback -0.407241 -2.06425 2.3721
thorax 1.58413 -1.02697 1.31985
lowerneck -5.80117 -5.90625 -1.47965
upperneck 19.1945 -7.08798 -4.78129
head 6.6756 -3.92224 -1.80805
rclavicle -1.42628e-014 -2.22639e-014
rhumerus -5.50774 19.4406 -102.837
rradius 139.366
rwrist 50.3831
rhand 31.2126 -6.55945
rfingers 7.12502
rthumb 54.7937 -24.8463
lclavicle -1.42628e-014 -2.22639e-014
lhumerus -10.2188 -14.3037 97.0728
lradius 131.317
lwrist -30.5327
lhand 8.21149 36.4254
lfingers 7.12502
lthumb 33.4281 63.3343
rfemur -10.9832 11.5135 18.9025
rtibia 10.9305
rfoot -4.17703 -17.2754
rtoes 0.338177
lfemur -11.2151 -17.6746 -16.7466
ltibia 19.3485
lfoot -7.23112 24.4132
ltoes -9.73172
1225
root 0.686531 18.2524 0.239787 6.74988 -4.462 -2.40736
lowerback -3.24254 -1.48936 1.88891
upperback -0.613991 -2.08449 2.41474
thorax 1.20989 -1.03889 1.32962
lowerneck -5.7397 -5.97293 -1.56945
upperneck 19.482 -7.17973 -4.70808
head 6.76259 -3.96995 -1.78356
rclavicle -5.06901e-015 2.78299e-014
rhumerus -5.99202 19.4621 -103.023
rradius 139.399
rwrist 50.4477
rhand 31.05 -6.55681
rfingers 7.12502
rthumb 54.6484 -24.9468
lclavicle -5.06901e-015 2.78299e-014
lhumerus -10.6316 -14.2125 97.173
lradius 131.372
lwrist -30.6206
lhand 8.24385 36.3517
lfingers 7.12502
lthumb 33.4588 63.2539
rfemur -10.7657 11.7323 19.0493
rtibia 10.6466
rfoot -4.0509 -17.5196
rtoes 0.0855326
lfemur -11.0819 -17.8055 -16.6244
ltibia 19.2475
lfoot -7.11988 24.5409
ltoes -10.3238
